<svg width="180" height="180" viewBox="0 0 180 180" fill="none" xmlns="http://www.w3.org/2000/svg">
<path fill-rule="evenodd" clip-rule="evenodd" d="M58.4054 46.1029C58.4054 46.8964 58.4337 47.6832 58.4892 48.4626C57.3095 47.9164 56.0846 47.4346 54.8174 47.0229C37.6401 41.4417 19.1907 50.8421 13.6094 68.0194C8.02818 85.1967 17.4286 103.646 34.606 109.227C35.3602 109.472 36.1168 109.689 36.8747 109.877C35.9909 110.83 35.1543 111.846 34.3712 112.923C23.755 127.535 26.9942 147.987 41.6061 158.603C56.218 169.219 76.6694 165.98 87.2855 151.368C87.7516 150.726 88.191 150.074 88.6039 149.411C89.237 150.545 89.9444 151.655 90.7271 152.732C101.343 167.344 121.795 170.583 136.407 159.967C151.018 149.351 154.258 128.899 143.641 114.287C143.175 113.646 142.69 113.026 142.187 112.428C143.462 112.176 144.736 111.846 146.002 111.435C163.18 105.853 172.58 87.4038 166.999 70.2265C161.418 53.0492 142.968 43.6488 125.791 49.23C125.038 49.4748 124.3 49.7442 123.577 50.0372C123.732 48.7474 123.811 47.4344 123.811 46.1029C123.811 28.0416 109.17 13.4 91.1082 13.4C73.047 13.4 58.4054 28.0416 58.4054 46.1029Z" fill="#E4E7EB"/>
</svg>
