<svg width="180" height="180" viewBox="0 0 180 180" fill="none" xmlns="http://www.w3.org/2000/svg">
<path d="M56.3886 52.9999L64.0793 56.5603L63.4766 48.107C63.4294 47.4459 63.4054 46.7776 63.4054 46.1029C63.4054 30.803 75.8084 18.4 91.1082 18.4C106.408 18.4 118.811 30.803 118.811 46.1029C118.811 47.235 118.743 48.3492 118.612 49.442L117.604 57.8545L125.456 54.6709C126.069 54.4223 126.696 54.1934 127.336 53.9853C141.887 49.2574 157.516 57.2206 162.244 71.7716C166.972 86.3227 159.008 101.951 144.457 106.679C143.38 107.029 142.299 107.309 141.219 107.522L132.905 109.163L138.361 115.647C138.788 116.154 139.2 116.681 139.596 117.226C148.589 129.604 145.845 146.929 133.468 155.922C121.09 164.915 103.765 162.171 94.7722 149.793C94.1067 148.877 93.5065 147.936 92.9701 146.975L88.8411 139.575L84.3602 146.767C84.0099 147.329 83.6368 147.884 83.2405 148.429C74.2474 160.807 56.9229 163.551 44.545 154.558C32.1672 145.565 29.4232 128.24 38.4163 115.862C39.0821 114.946 39.7921 114.084 40.5409 113.276L46.3032 107.063L38.0779 105.023C37.435 104.864 36.7924 104.681 36.1511 104.472C21.6 99.7442 13.6368 84.1155 18.3647 69.5645C23.0926 55.0135 38.7213 47.0503 53.2723 51.7782C54.3498 52.1283 55.3892 52.5372 56.3886 52.9999Z" stroke="#B5B5B5" stroke-width="10"/>
</svg>
