<svg width="24" height="24" viewBox="0 0 24 24" fill="currentColor" xmlns="http://www.w3.org/2000/svg">
<path d="M20 19C19.7167 19 19.4793 18.904 19.288 18.712C19.096 18.5207 19 18.2834 19 18V15C19 14.1667 18.7083 13.4584 18.125 12.875C17.5417 12.2917 16.8333 12 16 12H6.79999L9.72499 14.925C9.90832 15.1084 9.99999 15.3334 9.99999 15.6C9.99999 15.8667 9.89999 16.1 9.69999 16.3C9.51665 16.4834 9.28332 16.575 8.99999 16.575C8.71665 16.575 8.48332 16.4834 8.29999 16.3L3.69999 11.7C3.59999 11.6 3.52932 11.4917 3.48799 11.375C3.44599 11.2584 3.42499 11.1334 3.42499 11C3.42499 10.8667 3.44599 10.7417 3.48799 10.625C3.52932 10.5084 3.59999 10.4 3.69999 10.3L8.32499 5.67502C8.50832 5.49169 8.73332 5.40002 8.99999 5.40002C9.26665 5.40002 9.49999 5.50002 9.69999 5.70002C9.88332 5.88336 9.97499 6.11669 9.97499 6.40002C9.97499 6.68336 9.88332 6.91669 9.69999 7.10002L6.79999 10H16C17.3833 10 18.5627 10.4874 19.538 11.462C20.5127 12.4374 21 13.6167 21 15V18C21 18.2834 20.904 18.5207 20.712 18.712C20.5207 18.904 20.2833 19 20 19Z" fill="currentColor"/>
</svg>
