<svg width="180" height="180" viewBox="0 0 180 180" fill="none" xmlns="http://www.w3.org/2000/svg">
<path fill-rule="evenodd" clip-rule="evenodd" d="M50.5411 137.778C51.1685 135.405 51.6668 133.059 52.036 131.019C39.0257 120.617 30.7488 104.974 30.7488 87.4799C30.7488 56.1615 57.2765 30.7729 90 30.7729C122.724 30.7729 149.251 56.1615 149.251 87.4799C149.251 118.798 122.724 144.187 90 144.187C83.8628 144.187 77.9435 143.294 72.3762 141.636C68.6523 143.616 63.8023 145.324 59.049 146.688C58.8382 146.748 58.6275 146.808 58.4172 146.867C56.6685 147.359 54.9404 147.803 53.294 148.197C52.1884 148.462 51.1197 148.703 50.1064 148.921C48.4727 149.271 47.1389 147.252 47.8262 145.729C48.1943 144.914 48.5421 144.051 48.8695 143.159C49.4541 141.566 49.9739 139.879 50.429 138.198C50.4668 138.058 50.5042 137.918 50.5411 137.778ZM73.4311 153.058C78.7536 154.302 84.3041 154.96 90 154.96C128.223 154.96 160.024 125.189 160.024 87.4799C160.024 49.771 128.223 20 90 20C51.7773 20 19.9759 49.771 19.9759 87.4799C19.9759 106.037 27.7478 122.761 40.1628 134.884C39.5445 137.246 38.8136 139.511 38.007 141.298C35.8233 146.136 37.0593 151.018 39.244 154.168C41.4737 157.382 46.2142 160.775 52.3676 159.454C58.1737 158.207 66.4495 156.067 73.4311 153.058Z" fill="#B5B5B5"/>
</svg>
