<svg width="645" height="170" viewBox="0 0 645 170" fill="none" xmlns="http://www.w3.org/2000/svg">
<path fill-rule="evenodd" clip-rule="evenodd" d="M46.4054 49.3028C46.4054 50.0963 46.4337 50.8832 46.4892 51.6625C45.3095 51.1164 44.0846 50.6346 42.8174 50.2229C25.6401 44.6416 7.19066 54.0421 1.60942 71.2194C-3.97182 88.3967 5.42864 106.846 22.606 112.427C23.3602 112.672 24.1168 112.889 24.8747 113.077C23.9909 114.03 23.1543 115.046 22.3712 116.123C11.755 130.735 14.9942 151.187 29.6061 161.803C44.218 172.419 64.6694 169.18 75.2855 154.568C75.7516 153.926 76.191 153.274 76.6039 152.611C77.237 153.745 77.9444 154.855 78.7271 155.932C89.3433 170.544 109.795 173.783 124.407 163.167C139.018 152.551 142.258 132.099 131.641 117.487C131.175 116.845 130.69 116.226 130.187 115.628C131.462 115.376 132.736 115.046 134.002 114.634C151.18 109.053 160.58 90.6038 154.999 73.4265C149.418 56.2492 130.968 46.8487 113.791 52.43C113.038 52.6747 112.3 52.9442 111.577 53.2372C111.732 51.9473 111.811 50.6344 111.811 49.3028C111.811 31.2415 97.1695 16.6 79.1082 16.6C61.047 16.6 46.4054 31.2415 46.4054 49.3028ZM79.284 96.8568L79.1075 97.0453L77.985 95.8393L78.1173 96.0791L76.6266 96.7725L76.8913 96.7216L77.0896 98.349L77.1226 98.0847L78.7365 98.4L78.4907 98.2848L79.284 96.8568Z" fill="#FFC1C1"/>
<path d="M75.0969 82.8437C75.5703 79.8633 79.8602 79.8633 80.3335 82.8437L80.6171 84.629C80.9275 86.5831 83.1916 87.5209 84.7928 86.3586L86.2557 85.2967C88.6978 83.524 91.7313 86.5574 89.9585 88.9996L88.8966 90.4625C87.7343 92.0637 88.6722 94.3278 90.6263 94.6382L92.4116 94.9217C95.392 95.3951 95.392 99.685 92.4116 100.158L90.6263 100.442C88.6722 100.752 87.7343 103.016 88.8967 104.618L89.9586 106.081C91.7313 108.523 88.6978 111.556 86.2557 109.783L84.7928 108.721C83.1915 107.559 80.9275 108.497 80.6171 110.451L80.3335 112.236C79.8602 115.217 75.5703 115.217 75.0969 112.236L74.8133 110.451C74.503 108.497 72.2389 107.559 70.6376 108.721L69.1747 109.783C66.7326 111.556 63.6992 108.523 65.4719 106.081L66.5338 104.618C67.6961 103.016 66.7583 100.752 64.8041 100.442L63.0188 100.158C60.0385 99.685 60.0385 95.3951 63.0189 94.9217L64.8042 94.6382C66.7583 94.3278 67.6961 92.0637 66.5338 90.4625L65.4719 88.9996C63.6992 86.5574 66.7326 83.524 69.1747 85.2967L70.6376 86.3586C72.2389 87.5209 74.503 86.5831 74.8133 84.629L75.0969 82.8437Z" fill="#FF9292"/>
<path fill-rule="evenodd" clip-rule="evenodd" d="M46.4054 49.7029C46.4054 50.4963 46.4337 51.2832 46.4892 52.0625C45.3095 51.5164 44.0846 51.0346 42.8174 50.6229C25.6401 45.0416 7.19066 54.4421 1.60942 71.6194C-3.97182 88.7967 5.42864 107.246 22.606 112.827C23.3602 113.072 24.1168 113.289 24.8747 113.477C23.9909 114.43 23.1543 115.446 22.3712 116.523C11.755 131.135 14.9942 151.587 29.6061 162.203C44.218 172.819 64.6694 169.58 75.2855 154.968C75.7516 154.326 76.191 153.674 76.6039 153.011C77.237 154.145 77.9444 155.255 78.7271 156.332C89.3433 170.944 109.795 174.183 124.407 163.567C139.018 152.951 142.258 132.499 131.641 117.887C131.175 117.246 130.69 116.626 130.187 116.028C131.462 115.776 132.736 115.446 134.002 115.035C151.18 109.453 160.58 91.0038 154.999 73.8265C149.418 56.6492 130.968 47.2487 113.791 52.83C113.038 53.0747 112.3 53.3442 111.577 53.6372C111.732 52.3474 111.811 51.0344 111.811 49.7029C111.811 31.6416 97.1695 17 79.1082 17C61.047 17 46.4054 31.6416 46.4054 49.7029ZM79.284 97.2568L79.1075 97.4453L77.985 96.2393L78.1173 96.4791L76.6266 97.1725L76.8913 97.1216L77.0896 98.7491L77.1226 98.4847L78.7365 98.8L78.4907 98.6848L79.284 97.2568Z" fill="#FFCAD7"/>
<path d="M75.0969 83.2437C75.5703 80.2633 79.8602 80.2633 80.3335 83.2437L80.6171 85.029C80.9275 86.9831 83.1916 87.9209 84.7928 86.7586L86.2557 85.6967C88.6978 83.924 91.7313 86.9574 89.9585 89.3996L88.8966 90.8625C87.7343 92.4637 88.6722 94.7278 90.6263 95.0382L92.4116 95.3217C95.392 95.7951 95.392 100.085 92.4116 100.558L90.6263 100.842C88.6722 101.152 87.7343 103.416 88.8967 105.018L89.9586 106.481C91.7313 108.923 88.6978 111.956 86.2557 110.183L84.7928 109.122C83.1915 107.959 80.9275 108.897 80.6171 110.851L80.3335 112.636C79.8602 115.617 75.5703 115.617 75.0969 112.636L74.8133 110.851C74.503 108.897 72.2389 107.959 70.6376 109.122L69.1747 110.183C66.7326 111.956 63.6992 108.923 65.4719 106.481L66.5338 105.018C67.6961 103.416 66.7583 101.152 64.8041 100.842L63.0188 100.558C60.0385 100.085 60.0385 95.7951 63.0189 95.3217L64.8042 95.0382C66.7583 94.7278 67.6961 92.4637 66.5338 90.8625L65.4719 89.3996C63.6992 86.9574 66.7326 83.924 69.1747 85.6967L70.6376 86.7586C72.2389 87.9209 74.503 86.9831 74.8133 85.029L75.0969 83.2437Z" fill="#FF88A4"/>
<path d="M243.6 154.2C230.267 154.2 219.733 151.2 212 145.2C204.267 139.067 198.933 131.867 196 123.6C193.067 115.2 191.6 107.067 191.6 99.2C191.6 91.3333 193.067 83.2667 196 75C198.933 66.6 204.267 59.4 212 53.4C219.733 47.2667 230.267 44.2 243.6 44.2C256.8 44.2 267.267 47.2667 275 53.4C282.733 59.4 288.067 66.6 291 75C294.067 83.2667 295.6 91.3333 295.6 99.2C295.6 107.067 294.067 115.2 291 123.6C288.067 131.867 282.733 139.067 275 145.2C267.267 151.2 256.8 154.2 243.6 154.2ZM243.6 135.8C254.4 135.8 262.4 132.267 267.6 125.2C272.8 118.133 275.4 109.467 275.4 99.2C275.4 88.9333 272.8 80.2667 267.6 73.2C262.4 66.1333 254.4 62.6 243.6 62.6C232.8 62.6 224.8 66.1333 219.6 73.2C214.4 80.2667 211.8 88.9333 211.8 99.2C211.8 109.467 214.4 118.133 219.6 125.2C224.8 132.267 232.8 135.8 243.6 135.8Z" fill="black"/>
<path d="M429.042 44.2C438.642 44.2 446.909 47.0667 453.842 52.8C460.909 58.4 464.442 69.0667 464.442 84.8V151.6H444.042V88.2C444.042 81 442.442 75.1333 439.242 70.6C436.042 65.9333 431.709 63.6 426.242 63.6C421.442 63.6 416.909 65.8 412.642 70.2C408.375 74.4667 405.709 81.1333 404.642 90.2V151.6H383.242V88.2C383.242 80.3333 381.709 74.2667 378.642 70C375.575 65.7333 371.242 63.6 365.642 63.6C362.575 63.6 359.442 64.6667 356.242 66.8C353.042 68.8 350.309 72 348.042 76.4C345.775 80.6667 344.375 86.0667 343.842 92.6V151.6H322.642V46.8H343.842V58.6C346.509 53.8 350.175 50.2 354.842 47.8C359.509 45.4 364.042 44.2 368.442 44.2C383.775 44.2 394.242 50.1333 399.842 62C403.842 56.4 408.109 52.0667 412.642 49C417.309 45.8 422.775 44.2 429.042 44.2Z" fill="black"/>
<path d="M542.037 154.2C528.704 154.2 518.171 151.2 510.437 145.2C502.704 139.067 497.371 131.867 494.437 123.6C491.504 115.2 490.037 107.067 490.037 99.2C490.037 91.3333 491.504 83.2667 494.437 75C497.371 66.6 502.704 59.4 510.437 53.4C518.171 47.2667 528.704 44.2 542.037 44.2C555.237 44.2 565.704 47.2667 573.437 53.4C581.171 59.4 586.504 66.6 589.437 75C592.504 83.2667 594.037 91.3333 594.037 99.2C594.037 107.067 592.504 115.2 589.437 123.6C586.504 131.867 581.171 139.067 573.437 145.2C565.704 151.2 555.237 154.2 542.037 154.2ZM542.037 135.8C552.837 135.8 560.837 132.267 566.037 125.2C571.237 118.133 573.837 109.467 573.837 99.2C573.837 88.9333 571.237 80.2667 566.037 73.2C560.837 66.1333 552.837 62.6 542.037 62.6C531.237 62.6 523.237 66.1333 518.037 73.2C512.837 80.2667 510.237 88.9333 510.237 99.2C510.237 109.467 512.837 118.133 518.037 125.2C523.237 132.267 531.237 135.8 542.037 135.8Z" fill="black"/>
<path d="M631.28 26C627.68 26 624.613 24.7333 622.08 22.2C619.546 19.6667 618.28 16.6 618.28 13C618.28 9.4 619.546 6.33333 622.08 3.8C624.613 1.26667 627.68 0 631.28 0C634.88 0 637.946 1.26667 640.48 3.8C643.013 6.33333 644.28 9.4 644.28 13C644.28 16.6 643.013 19.6667 640.48 22.2C637.946 24.7333 634.88 26 631.28 26ZM641.88 151.6H620.48V46.8H641.88V151.6Z" fill="black"/>
</svg>
